<?xml version="1.0" encoding="UTF-8"?>
<svg width="148px" height="123px" viewBox="0 0 148 123" version="1.1" xmlns="http://www.w3.org/2000/svg" xmlns:xlink="http://www.w3.org/1999/xlink">
    <!-- Generator: Sketch 64 (93537) - https://sketch.com -->
    <title>Combined Shape</title>
    <desc>Created with Sketch.</desc>
    <g id="Branding" stroke="none" stroke-width="1" fill="none" fill-rule="evenodd">
        <g id="Logo/Jane-Chat-Blue" transform="translate(-1.000000, 0.000000)" fill="#00C1CA">
            <path d="M136.124225,0.0361357791 C136.771767,0.0774821686 138.526665,0.284495976 140.006332,0.871320462 C141.485998,1.45814495 143.247696,2.37737722 145.08804,4.19546395 C146.928385,6.01355067 147.949091,8.43980175 148.175412,9.13649595 C148.401733,9.83319014 149.043451,11.8060814 149,14.0011292 C148.917984,15.8704529 148.74559,16.339386 148.697714,16.8782981 C148.650253,17.1801173 144.18465,47.2701332 135.300903,107.148346 C135.232551,107.637905 135.180488,108.000372 135.144714,108.235748 C134.943344,109.715286 134.625367,110.958533 134.232265,112.006201 C133.598816,113.793961 132.451248,115.770691 130.867371,117.527618 C129.336731,119.184158 127.405626,120.660039 124.991898,121.676712 C122.63533,122.636124 121.141251,122.855148 119.286148,122.978134 C117.428909,123.051971 116.350174,122.928207 113.748257,122.387043 C112.013646,122.026267 111.015977,121.823112 110.755248,121.777576 L20.2242584,103.408157 C15.5285676,102.57304 11.5788007,100.666643 8.37495789,97.688967 C3.51709228,93.31419 1.79815747,87.7643285 1.27152369,84.5265045 C1.0744353,83.0933584 0.983927409,81.9216451 1,81.0113647 L1.27152369,30.0158958 C1.30132293,28.4603012 1.45700392,27.1175579 1.73856665,25.987666 C2.09734886,24.5196472 2.75454828,21.9915167 4.81622895,18.9991861 C6.53352499,16.4858035 8.84137808,14.660454 10.1601558,13.8021702 C11.4789335,12.9438863 13.3783637,11.8853384 16.009831,11.1949533 C17.7120182,10.7339125 19.2623452,10.61446 21.2818822,10.4413378 C21.8877828,10.3893977 22.8460039,10.305434 24.1565455,10.1894467 L133.681178,0.0774821686 C134.318884,0.0305561395 134.748114,0.00474682356 134.968869,5.42206614e-05 L135.357329,0.000340367947 C135.525844,0.00301859494 135.735699,0.0113279454 136.124225,0.0361357791 Z M80.2403702,34.7796638 L46.926096,34.7796638 C45.3837607,34.7796638 44.0727955,35.3203365 42.9931608,36.4016981 C41.9135262,37.4830598 41.3737169,38.7961221 41.3737169,40.3409244 L41.3737169,73.7084884 C41.3737169,75.2532908 41.9135262,76.5663531 42.9931608,77.6477147 C44.0727955,78.7290764 45.3837607,79.2697491 46.926096,79.2697491 L80.2403702,79.2697491 C81.7827054,79.2697491 83.0936707,78.7290764 84.1733054,77.6477147 C85.25294,76.5663531 85.7927493,75.2532908 85.7927493,73.7084884 L85.7927493,40.3409244 C85.7927493,38.7961221 85.25294,37.4830598 84.1733054,36.4016981 C83.0936707,35.3203365 81.7827054,34.7796638 80.2403702,34.7796638 Z M104.763378,38.5451007 C103.837977,38.4292405 102.989705,38.6416476 102.218537,39.1823284 L102.218537,39.1823284 L89.4943353,47.8717982 L89.4943353,66.1776146 L102.218537,74.8670844 C102.989705,75.4077652 103.837977,75.6201723 104.763378,75.5043122 C105.688779,75.388452 106.459935,75.0022572 107.076869,74.3457162 C107.693803,73.6891752 108.002265,72.8588564 108.002265,71.8547349 L108.002265,71.8547349 L108.002265,42.0788184 C108.002265,41.151937 107.693803,40.3602376 107.076869,39.7036966 C106.459935,39.0471556 105.688779,38.6609608 104.763378,38.5451007 Z" id="Combined-Shape"></path>
        </g>
    </g>
</svg>
